<svg width="250" height="70" xmlns="http://www.w3.org/2000/svg">
 <defs>
  <filter id="svg_1_blur">
   <feGaussianBlur stdDeviation="0.2" in="SourceGraphic"/>
  </filter>
 </defs>
 <g>
  <title>Layer 1</title>
  <text filter="url(#svg_1_blur)" stroke="#000000" font-weight="bold" transform="matrix(3.74724 0 0 2.77922 -1754.45 -545.325)" xml:space="preserve" text-anchor="start" font-family="'Assistant'" font-size="24" id="svg_1" y="223.16614" x="332.50602" stroke-width="0" fill="#000000">YuAN</text>
  <path stroke="#000" id="svg_3" d="m16.74406,49.24391c0.13683,0 0.42639,0 0.56706,0c-0.15833,0 0.43805,0 0.23222,0c-0.06333,0 -1.66644,0 -1.86833,0c0.07701,0 0.94009,0 0.91433,0c-0.36016,0 1.21538,0 1.39734,0c0.33527,0 0.77567,0 0.97112,0c0.18251,0 1.59078,0 1.66777,0c0.01103,0 0.77536,0 0.63159,0c-0.23047,0 -1.85572,0 -1.98269,0c0.14777,0 0.08794,0 1.0318,0c0.42478,0 1.32985,0 2.15881,0c0.93603,0 1.56422,0 2.59531,0c1.35735,0 3.09083,0 4.6785,0c1.10447,0 2.95499,0 3.23868,0c0.52554,0 1.00079,0 1.62373,0c0.91916,0 1.81664,0 2.78166,0c0.9074,0 0.59372,0 0.42454,0c-1.39755,0 -2.82895,0 -3.27976,0c-0.15157,0 -0.42409,0 -1.06728,0c-1.03403,0 -2.29953,0 -3.48855,0c0.7245,0 1.51029,0 2.21525,0c1.09971,0 1.63556,0 1.35157,0c-0.06046,0 -1.10901,0 -1.62187,0c-1.94659,0 -4.59671,0 -6.73265,0c-0.76918,0 -2.89085,0 -3.27231,0c-0.94695,0 -1.72476,0 -1.75673,0c-0.11771,0 -0.26167,0 -0.1982,0c-0.11795,0 -0.49251,0 -1.04701,0c-0.80166,0 -1.53549,0 -1.83253,0c-0.10183,0 -0.02709,0 -0.14586,0c-0.56158,0 -0.26589,0 -0.48627,0c-0.18685,0 -1.02362,0 -1.2547,0c-0.73866,0 -2.39726,0 -3.60012,0c-1.1164,0 -2.0626,0 -2.95985,0c-1.15729,0 -2.78825,0 -3.79163,0c-1.27021,0 -2.38041,0 -1.32377,0c0.67442,0 1.94392,0 3.18445,0c-0.8757,0 -2.81317,0 -3.5337,0c-0.23127,0 -0.31706,0 -0.37588,0c-0.09571,0 -0.52161,0 -0.87517,0c-0.28421,0 -0.78655,0 -1.31227,0c-0.55095,0 -1.00264,0 -0.04383,0c0.33493,0 1.37202,0 1.58876,0c0.75763,0 1.78984,0 2.55608,0c0.50201,0 2.70468,0 3.31383,0c4.01583,0 6.87138,0 8.72655,0l0.00001,0z" stroke-width="0" fill="#000000"/>
  <text fill="#ffffff" stroke-width="0" x="281.128" y="189.35924" id="svg_2" font-size="24" font-family="'Archivo'" text-anchor="start" xml:space="preserve" stroke="#000" transform="matrix(3.54728 0 0 3.02949 -993.405 -510.242)" font-weight="bold">YUAN</text>
 </g>
</svg>