<svg xmlns="http://www.w3.org/2000/svg" fill="none" viewBox="0 0 1366 1366" height="1366" width="1366">
<g clip-path="url(#clip0_1_1640)">
<path fill="#FDFCFD" d="M0 0H1365.33V1365.33H0V0ZM467.787 277.627C472.2 305.64 492.227 327.04 508.507 348.96C504.28 356.747 500.32 364.68 496.253 372.547C475.6 373.707 454.893 373.933 434.267 375.467C437.32 379.84 441.893 382.72 445.92 386.107C455.84 393.733 465.653 401.48 475.773 408.853C474.133 414.293 471.92 419.547 470.2 424.973C469.893 426.867 468.507 427.893 466.733 428.36C456.187 424.44 444.907 422.547 433.88 420.373C423.2 418.92 411.907 416.387 401.44 420.213C390.32 424.44 384.293 436.56 383.84 447.933C383.653 460.36 388.827 472.467 396.853 481.827C409.84 496.707 428.213 505.68 446.907 511.16C445.08 517.853 445.027 525.213 442.24 531.507C421.8 540.427 400.053 546.16 379.68 555.307C398.027 562.827 416.707 569.613 435.453 576.093C434.707 587.213 432.893 598.227 432.227 609.347C431.147 619.147 431.467 629.04 430.333 638.853C397.867 631.093 367.627 612.6 347.72 585.547C327.587 559.373 317.333 527.04 312.04 494.813C290.627 498.813 270.2 507.413 251.213 517.96C213.64 539.4 181.947 570.88 159.747 607.973C152.613 620.68 145.627 633.893 142.987 648.387C145.933 648.853 148.88 649.373 151.84 649.76C178.84 649.387 206.853 652.84 230.733 666.293C235.48 669.8 240.093 673.573 243.88 678.133C260.507 697.04 270.84 720.507 277.08 744.707C277.867 747.587 278.64 750.48 279.493 753.347C283.92 752.707 288.28 751.733 292.693 750.947L292.747 750.533C313.813 745.107 335.48 741.427 357.307 742.387C332.867 757.96 311 781.013 304.773 810.12C298.107 813.773 291.747 819.067 289.427 826.573C287.12 833.32 291.133 840.867 297.293 843.947C301.6 846.493 306.747 846.16 311.533 845.68C312.253 851.373 313.12 857.333 316.667 862.067C320.147 867.44 326.773 871.64 333.307 869.493C340.533 866.987 344.307 859.28 345.093 852.12C350.267 853.84 356.733 856.08 361.533 852.253C366.347 848.987 368.413 842.933 367.56 837.307C367.213 829.987 359.787 824.827 360.813 817.267C361.747 806.347 368.44 796.88 376.027 789.373C392.253 774.053 415.933 767.453 437.813 771.027C442.213 796.373 450.067 821.093 460.72 844.507C478.547 882.8 504.013 918.6 538.68 943.32C538.4 943.867 537.84 944.973 537.547 945.52C547.8 951.653 558.267 957.4 569.013 962.6C570.493 978.12 572.027 993.88 569.187 1009.35C566.08 1028.83 555.933 1048.17 538.507 1058.37C534.507 1051.07 529.68 1044.25 525.187 1037.27C522.267 1038.64 519.52 1040.35 516.933 1042.28C510.84 1037.04 504.413 1032.17 497.4 1028.23C494.4 1031.28 491.307 1034.27 488.173 1037.2C483.347 1032.23 478.747 1026.84 472.827 1023.15C467.493 1019.89 459.427 1019.24 454.933 1024.24C451.147 1029.13 451.987 1035.95 453.133 1041.63C457.16 1056.15 467.667 1067.57 477.48 1078.52C494.32 1095.71 512.64 1112.2 534.453 1122.79C544.827 1127.96 558.507 1130.56 568.44 1123.07C575.56 1118.05 577.067 1108.29 574.52 1100.41C589.64 1084.05 601.52 1064.6 608.693 1043.48C615.893 1022.93 617.707 1000.92 617.48 979.28C655.813 987.773 695.853 988.987 734.507 981.987C753.52 978.773 771.973 972.92 790.04 966.293C794.067 964.413 796.827 969.2 800 970.88C849.053 1005.43 909.16 1022.97 968.96 1023.17C971.467 1029.04 974.667 1034.79 979.307 1039.24C982.72 1042.63 987.92 1045.27 992.72 1043.11C1001.25 1039.01 1007.24 1030.65 1009.68 1021.64C1013.61 1007.65 1012.67 992.92 1011.29 978.64C1009.67 961.093 1006.63 943.6 1000.99 926.88C998.093 918.6 994.373 910.227 987.893 904.12C983.573 900.307 977.8 896.947 971.84 898.333C965.44 900.893 963.307 908.4 962.933 914.667C961.813 924.373 970.133 932.147 968.68 941.96C964.013 944.227 958 943.267 953.827 946.147C956.067 955.493 961.88 964.213 961.173 974.12C939.293 974.4 917.267 972.44 896.08 966.84C875.707 961.52 856.387 952.24 839.653 939.453C873.867 910.533 899.507 872.4 916.48 831.133C924.467 811.28 931.707 790.88 935.307 769.733C936.147 765.96 936.68 762.12 937.347 758.32C949.507 759.56 961.747 759.16 973.96 759.4C979.453 757.48 984.907 755.387 990.48 753.653C1007.01 748.853 1023.89 744.067 1041.28 744.347C1051.29 744.053 1061.25 745.627 1070.99 747.893L1071.04 748.253C1076.24 749.453 1081.31 751.267 1086.57 752.267L1085.84 753.04C1086.69 753.013 1088.41 752.973 1089.28 752.947C1094.23 733.32 1100.79 713.92 1110.95 696.333C1114.47 690.067 1119.17 684.6 1123.35 678.787C1126.95 674.533 1131.23 670.947 1135.41 667.293C1139.2 664.84 1143.05 662.48 1147.07 660.427C1166.97 649.8 1190.04 647.88 1212.21 648.387C1215.53 648.4 1218.87 648.44 1222.23 648.467C1218.68 632.347 1211.97 617.027 1203.81 602.733C1182.69 566.947 1152.23 536.547 1115.95 516.187C1097.2 505.907 1077.09 497.587 1055.89 494.12C1053.13 510.28 1048.52 526.107 1042.81 541.467C1035.01 562.16 1024.11 581.933 1008.72 597.973C991.027 617.253 967.107 630.36 941.707 636.28C940.227 610.64 938.12 585.04 935.053 559.533C952.347 553.213 970 547.813 986.947 540.56C967.627 531.813 947.8 524.253 928.587 515.28C927.733 510.84 927.12 506.387 926.2 501.973C941.307 498.867 955.4 491.6 967.24 481.8C976.453 474.067 984.253 463.893 986.533 451.853C989.293 438.8 983.933 424.147 972.773 416.627C964.733 411.253 954.4 411.813 945.28 413.387C932.227 416.427 919.307 420.32 906.84 425.2C905.973 425.44 904.253 425.907 903.387 426.147C900.88 420.48 898.6 414.707 896.067 409.04C910.627 396.453 926.493 385.427 941.04 372.813C920.213 373.107 899.493 375.64 878.667 375.8C874.027 367.067 869.013 358.507 863.12 350.547C872.733 340.213 881.627 329.147 889.48 317.413C899.52 301.933 907.813 284.2 907.24 265.347C906.013 244.24 893.347 224.853 876.067 213.16C870.84 209.76 865.32 206.36 859.067 205.4C863.653 225.147 869.16 247.16 860.12 266.467C852.893 281.853 837.027 289.987 822.293 296.693C804.707 289.867 786.493 284.72 768.173 280.24C768.253 261.84 769.88 243.48 769.613 225.08C758.84 238.08 747.88 250.907 737.053 263.853C734.4 266.867 732.28 270.4 729.2 273C726.587 273.027 724.013 272.68 721.44 272.413C721.773 249.76 724.96 227.253 724.947 204.587C709.88 223.107 695.947 242.533 681.373 261.413C680.453 263.32 678.813 262.147 677.653 261.187C661.48 247.747 646.373 233.04 630 219.827C631.84 237.867 634.573 255.8 636.867 273.8C635.187 274.28 633.507 274.76 631.827 275.24C618.093 258.747 604.467 242.16 591.16 225.32C594.573 244.12 598.067 262.907 601.947 281.613C586 287.027 569.773 291.733 554.307 298.48C535.8 290.867 517.627 277.88 510.973 258.187C504.787 239.96 510.613 220.747 515.667 203.013C485.053 212.627 462.333 245.307 467.787 277.627ZM613.787 1191.36C546.8 1192.97 479.773 1196.41 413.307 1205.13C390.747 1208.52 367.867 1211.83 346.36 1219.68C342.32 1221.88 334.333 1224.16 336.573 1230.2C341.573 1235.64 349.333 1237.27 356.04 1239.77C381.68 1247.17 408.32 1250.13 434.72 1253.4C523.667 1262.95 613.2 1265.75 702.613 1265.2C779.613 1264.8 856.68 1261.76 933.28 1253.55C959.64 1250.32 986.213 1247.23 1011.77 1239.75C1018 1237.55 1025.11 1236.11 1029.77 1231.11C1032.13 1227.97 1028.83 1224.64 1026.19 1223.15C1016.99 1217.72 1006.25 1215.89 996.04 1213.29C939.88 1201.39 882.413 1197.6 825.24 1194.28C754.813 1190.67 684.267 1190.28 613.787 1191.36Z"></path>
<path fill="#FDFCFD" d="M575.24 354.24C594.467 351.627 615.24 357.013 629.533 370.467C640.187 379.613 646.92 392.76 648.933 406.587C652.413 426.413 645.093 447.44 630.92 461.573C608.893 484.787 569.067 488.4 543.987 468.067C527.973 456.12 519.32 435.773 520.293 415.987C520.547 385.787 545.133 357.853 575.24 354.24ZM582.893 394.24C590.587 400.627 586.347 415.307 576.013 415.44C571.013 416.293 568.027 412.08 564.64 409.44C559.067 421.693 565.92 438.147 579.12 441.84C592.44 446.573 608.24 437.68 611.68 424.12C614.547 414.467 611.16 403.053 602.747 397.253C597.093 392.96 589.56 393.187 582.893 394.24Z"></path>
<path fill="#FDFCFD" d="M787.427 356.027C803.987 354.533 821.333 359.133 834.293 369.747C849.507 382.08 858.4 401.747 857.787 421.32C856.947 440.8 846.627 459.48 830.893 470.92C819.76 479.24 805.733 482.867 791.987 483.187C772.96 483.093 753.827 474.213 742.493 458.733C731.08 443.72 726.947 423.573 731.227 405.24C735.547 387.373 747.253 370.747 764.107 362.773C771.32 358.947 779.293 356.707 787.427 356.027ZM790.52 396.28C792.427 399.453 794.76 402.733 794.213 406.653C794.747 412.893 789.053 418.733 782.76 418.067C779.067 418.307 776.187 415.827 773.453 413.747C771.96 419.667 771.72 426.253 774.973 431.667C780.76 443.293 796.747 448.08 807.88 441.267C821.16 434.267 825.4 414.613 815.64 403.067C809.747 395.64 799.333 393.493 790.52 396.28Z"></path>
<path fill="#FDFCFD" d="M544.413 505.28C558.96 513.76 574.04 521.24 589.44 528.027C576.387 539.12 563.96 550.947 551.187 562.36C544.907 544.04 543.253 524.533 544.413 505.28Z"></path>
<path fill="#FDFCFD" d="M804.453 536.707C815.333 530.893 826.173 524.987 836.507 518.213C838.187 528.413 839.507 538.72 839.2 549.093C827.533 545.173 816.24 540.227 804.453 536.707Z"></path>
<path fill="#FDFCFD" d="M600.12 531.88C608.2 533.867 615.973 536.893 624.04 538.947C633.867 541.867 643.987 543.693 653.867 546.493C640.333 564.88 626.627 583.213 611.293 600.147C605.013 577.933 600.48 555.027 600.12 531.88Z"></path>
<path fill="#FDFCFD" d="M745.013 551.427C761.32 549.627 777.267 545.693 793.04 541.267C793.253 560.213 789.88 578.973 785.093 597.24C771.467 582.627 758.307 567.547 745.573 552.147L745.013 551.427Z"></path>
<path fill="#FDFCFD" d="M671.533 549.12C687.187 550.44 702.827 552.56 718.587 552.48C721.973 552.467 725.373 552.587 728.76 552.88C720.64 570.947 711.253 588.453 700.973 605.387C689.92 587.307 681.16 567.96 671.533 549.12Z"></path>
<path fill="#78577B" d="M467.787 277.627C462.333 245.307 485.053 212.627 515.667 203.013C510.613 220.747 504.787 239.96 510.973 258.187C517.627 277.88 535.8 290.867 554.307 298.48C545.013 302.613 535.267 305.68 526.093 310.053C519.427 313.173 513.347 318.347 510.893 325.48C507.92 332.973 509.347 341.147 508.507 348.96C492.227 327.04 472.2 305.64 467.787 277.627Z"></path>
<path fill="#78577B" d="M859.067 205.4C865.32 206.36 870.84 209.76 876.067 213.16C893.347 224.853 906.013 244.24 907.24 265.347C907.813 284.2 899.52 301.933 889.48 317.413C881.627 329.147 872.733 340.213 863.12 350.547C861.627 343.92 862.48 337.067 861.44 330.387C860.2 320.867 854.32 312.16 846.08 307.293C838.547 302.933 830.227 300.187 822.293 296.693C837.027 289.987 852.893 281.853 860.12 266.467C869.16 247.16 863.653 225.147 859.067 205.4Z"></path>
<path fill="#FE7D94" d="M681.373 261.413C695.947 242.533 709.88 223.107 724.947 204.587C724.96 227.253 721.773 249.76 721.44 272.413C724.013 272.68 726.587 273.027 729.2 273C732.28 270.4 734.4 266.867 737.053 263.853C747.88 250.907 758.84 238.08 769.613 225.08C769.88 243.48 768.253 261.84 768.173 280.24C786.493 284.72 804.707 289.867 822.293 296.693C830.227 300.187 838.547 302.933 846.08 307.293C854.32 312.16 860.2 320.867 861.44 330.387C862.48 337.067 861.627 343.92 863.12 350.547C869.013 358.507 874.027 367.067 878.667 375.8C899.493 375.64 920.213 373.107 941.04 372.813C926.493 385.427 910.627 396.453 896.067 409.04C898.6 414.707 900.88 420.48 903.387 426.147C904.253 425.907 905.973 425.44 906.84 425.2C906.08 425.6 904.56 426.4 903.813 426.8C912.853 451.36 920.453 476.44 926.2 501.973C927.12 506.387 927.733 510.84 928.587 515.28C947.8 524.253 967.627 531.813 986.947 540.56C970 547.813 952.347 553.213 935.053 559.533C938.12 585.04 940.227 610.64 941.707 636.28C941.973 646.36 942.347 656.427 942.467 666.52C942.693 684.733 942.813 702.973 941.667 721.173C925.693 718.76 909.667 716.573 893.747 713.787C892.813 731.987 894.987 752.173 884.2 768.04C877.627 778.613 863.8 783.84 851.907 780.2C841.92 777.24 833.307 770.68 826.36 763.08C813.613 748.2 804.44 729.16 804.96 709.227C804.96 705.933 805 702.64 805.013 699.347C795.773 697.96 786.533 696.64 777.347 694.96C770.187 713.227 769.027 733.853 773.933 752.84C779.733 777 795.067 798.573 815.56 812.533C830.373 823.013 848.36 829.493 866.64 828.92C879.133 828.867 891.493 824.813 901.76 817.747C912.48 810.013 919.96 798.733 925.8 787.053C928.8 781.2 930.48 774.493 935.307 769.733C931.707 790.88 924.467 811.28 916.48 831.133C899.507 872.4 873.867 910.533 839.653 939.453C827.413 929.44 816.52 917.947 804.987 907.16C785.547 916.147 765.467 923.947 744.56 928.827C688.893 942.8 629.293 936.52 576.093 915.907C569.88 913.573 563.773 910.987 557.627 908.533C550.613 919.733 544.693 931.56 538.68 943.32C504.013 918.6 478.547 882.8 460.72 844.507C450.067 821.093 442.213 796.373 437.813 771.027C415.933 767.453 392.253 774.053 376.027 789.373C368.44 796.88 361.747 806.347 360.813 817.267C359.787 824.827 367.213 829.987 367.56 837.307C368.413 842.933 366.347 848.987 361.533 852.253C356.733 856.08 350.267 853.84 345.093 852.12C344.307 859.28 340.533 866.987 333.307 869.493C326.773 871.64 320.147 867.44 316.667 862.067C313.12 857.333 312.253 851.373 311.533 845.68C306.747 846.16 301.6 846.493 297.293 843.947C291.133 840.867 287.12 833.32 289.427 826.573C291.747 819.067 298.107 813.773 304.773 810.12C311 781.013 332.867 757.96 357.307 742.387C364.48 738.667 371.52 734.693 378.96 731.533C384.52 729.067 390.253 726.96 396.12 725.307C407.293 721.88 418.853 720.133 430.4 718.493C429.867 701.867 429.547 685.227 429.693 668.6C429.8 658.68 429.813 648.76 430.333 638.853C431.467 629.04 431.147 619.147 432.227 609.347C432.893 598.227 434.707 587.213 435.453 576.093C416.707 569.613 398.027 562.827 379.68 555.307C400.053 546.16 421.8 540.427 442.24 531.507C445.027 525.213 445.08 517.853 446.907 511.16C452.92 483.587 459.587 456.107 468.88 429.413C468.347 429.147 467.267 428.613 466.733 428.36C468.507 427.893 469.893 426.867 470.2 424.973C471.92 419.547 474.133 414.293 475.773 408.853C465.653 401.48 455.84 393.733 445.92 386.107C441.893 382.72 437.32 379.84 434.267 375.467C454.893 373.933 475.6 373.707 496.253 372.547C500.32 364.68 504.28 356.747 508.507 348.96C509.347 341.147 507.92 332.973 510.893 325.48C513.347 318.347 519.427 313.173 526.093 310.053C535.267 305.68 545.013 302.613 554.307 298.48C569.773 291.733 586 287.027 601.947 281.613C598.067 262.907 594.573 244.12 591.16 225.32C604.467 242.16 618.093 258.747 631.827 275.24C633.507 274.76 635.187 274.28 636.867 273.8C634.573 255.8 631.84 237.867 630 219.827C646.373 233.04 661.48 247.747 677.653 261.187C678.813 262.147 680.453 263.32 681.373 261.413ZM554.72 341.56C556.08 343.067 557.427 344.6 558.787 346.133C563.12 343.187 566.893 339.4 571.627 337.04C587.2 328.787 608.027 332.373 619.933 345.32C622.92 348.387 624.2 352.64 626.933 355.853C629.413 355.693 631.587 354.413 633.733 353.293C626.613 335.907 607.64 325.613 589.32 325.84C576.173 325.693 563.6 332.053 554.72 341.56ZM744.253 357.76C746.013 359.173 747.987 360.32 750.053 361.253C751.133 359.947 752.227 358.627 753.347 357.347C767.893 339.667 796.467 335.333 815.133 348.96C817.493 351 819.387 347.48 821.253 346.48C818.133 342.827 814.093 340.093 809.68 338.267C786.907 328.347 757.867 336.92 744.253 357.76ZM575.24 354.24C545.133 357.853 520.547 385.787 520.293 415.987C519.32 435.773 527.973 456.12 543.987 468.067C569.067 488.4 608.893 484.787 630.92 461.573C645.093 447.44 652.413 426.413 648.933 406.587C646.92 392.76 640.187 379.613 629.533 370.467C615.24 357.013 594.467 351.627 575.24 354.24ZM787.427 356.027C779.293 356.707 771.32 358.947 764.107 362.773C747.253 370.747 735.547 387.373 731.227 405.24C726.947 423.573 731.08 443.72 742.493 458.733C753.827 474.213 772.96 483.093 791.987 483.187C805.733 482.867 819.76 479.24 830.893 470.92C846.627 459.48 856.947 440.8 857.787 421.32C858.4 401.747 849.507 382.08 834.293 369.747C821.333 359.133 803.987 354.533 787.427 356.027ZM667.68 460.96C665.413 468.507 666.987 476.413 668.093 484C669.813 493.947 673.387 504.133 680.827 511.253C685.427 515.813 693.173 517.08 698.747 513.587C704.253 509.44 705.84 502.227 707.2 495.853C709 485.867 710.68 475.68 709.56 465.52C700.2 463.28 690.56 462.893 681.067 461.587C676.627 460.933 672.147 460.787 667.68 460.96ZM527.627 493.427C521.267 514.96 521.653 538.24 526.667 560.013C531.36 581.053 544.44 600.667 563.733 610.88C580.973 620.533 601.493 620.853 620.667 618.973C650.613 615.44 680.307 607.747 710.68 609.267C724.48 609.76 738.133 611.92 751.893 612.867C770.707 614.573 790.24 613.453 808.013 606.627C823.733 600.72 836.693 588.547 844.387 573.707C855.253 552.907 858.227 528.2 853.733 505.267C847.813 509.347 842.48 514.2 836.507 518.213C826.173 524.987 815.333 530.893 804.453 536.707C800.64 538.213 796.8 539.667 793.04 541.267C777.267 545.693 761.32 549.627 745.013 551.427L745.573 552.147C739.987 552.333 734.413 552.653 728.827 552.733L728.76 552.88C725.373 552.587 721.973 552.467 718.587 552.48C702.827 552.56 687.187 550.44 671.533 549.12C665.587 548.667 659.707 547.573 653.867 546.493C643.987 543.693 633.867 541.867 624.04 538.947C615.973 536.893 608.2 533.867 600.12 531.88C596.533 530.667 592.987 529.347 589.44 528.027C574.04 521.24 558.96 513.76 544.413 505.28C538.587 501.667 533.027 497.653 527.627 493.427ZM615.627 698.947C622.8 701.84 630.827 701.627 638.427 701.04C639.907 696.853 642.373 690.693 637.72 687.64C631.947 684.627 625.067 683.773 618.64 684.107C611.8 684.933 609.347 695.693 615.627 698.947ZM660.467 692.667C656.587 692.96 652.973 695.92 652.893 700.013C652.187 706.373 658.173 711.267 664.027 711.907C666.853 712.187 670.907 712.667 672.187 709.387C675.613 701.867 668.92 691.693 660.467 692.667ZM631.187 763.2C627.76 765.4 626.347 769.653 625.72 773.493C624.627 778.053 629.707 782.52 634.107 780.733C638.387 779.147 636.96 773.733 636.613 770.253C636.013 767.547 634.973 762.16 631.187 763.2ZM604.32 764.347C600.213 767.187 596.733 772.8 598.173 777.867C600.96 780.84 605.667 779.707 609.307 779.627C612.587 779.467 617.533 777.413 616.16 773.32C614.507 768.64 610.187 761.52 604.32 764.347ZM757.853 861.88C753.44 862.827 748.907 863.933 745.093 866.44C740.24 869.987 741.973 878.32 747.08 880.8C751.96 881.507 756.853 880.067 761.52 878.76C763.84 877.853 766.88 877.227 767.88 874.64C771.2 868.48 765.053 859.147 757.853 861.88ZM717.667 871.093C709.787 872.853 709.027 884.84 716.173 888C721.893 890.36 732.08 887.693 731.107 879.973C731.893 872.907 723.6 868.893 717.667 871.093Z"></path>
<path fill="#454651" d="M554.72 341.56C563.6 332.053 576.173 325.693 589.32 325.84C607.64 325.613 626.613 335.907 633.733 353.293C631.587 354.413 629.413 355.693 626.933 355.853C624.2 352.64 622.92 348.387 619.933 345.32C608.027 332.373 587.2 328.787 571.627 337.04C566.893 339.4 563.12 343.187 558.787 346.133C557.427 344.6 556.08 343.067 554.72 341.56Z"></path>
<path fill="#454651" d="M744.253 357.76C757.867 336.92 786.907 328.347 809.68 338.267C814.093 340.093 818.133 342.827 821.253 346.48C819.387 347.48 817.493 351 815.133 348.96C796.467 335.333 767.893 339.667 753.347 357.347C752.227 358.627 751.133 359.947 750.053 361.253C747.987 360.32 746.013 359.173 744.253 357.76Z"></path>
<path fill="#454651" d="M582.893 394.24C589.56 393.187 597.093 392.96 602.747 397.253C611.16 403.053 614.547 414.467 611.68 424.12C608.24 437.68 592.44 446.573 579.12 441.84C565.92 438.147 559.067 421.693 564.64 409.44C568.027 412.08 571.013 416.293 576.013 415.44C586.347 415.307 590.587 400.627 582.893 394.24Z"></path>
<path fill="#454651" d="M790.52 396.28C799.333 393.493 809.747 395.64 815.64 403.067C825.4 414.613 821.16 434.267 807.88 441.267C796.747 448.08 780.76 443.293 774.973 431.667C771.72 426.253 771.96 419.667 773.453 413.747C776.187 415.827 779.067 418.307 782.76 418.067C789.053 418.733 794.747 412.893 794.213 406.653C794.76 402.733 792.427 399.453 790.52 396.28Z"></path>
<path fill="#454651" d="M251.213 517.96C270.2 507.413 290.627 498.813 312.04 494.813C317.333 527.04 327.587 559.373 347.72 585.547C367.627 612.6 397.867 631.093 430.333 638.853C429.813 648.76 429.8 658.68 429.693 668.6C421.867 667.427 414.16 665.587 406.627 663.2C400.4 683.32 396.653 704.227 396.12 725.307C390.253 726.96 384.52 729.067 378.96 731.533C377.813 706.107 381.493 680.507 388.493 656.067C371.933 647.973 356.173 637.867 343.587 624.253C330.907 640.533 320.827 658.72 312.493 677.56C302.387 700.747 295.36 725.333 292.747 750.533L292.693 750.947C288.28 751.733 283.92 752.707 279.493 753.347C278.64 750.48 277.867 747.587 277.08 744.707C281.16 695.893 299.267 648.253 329.467 609.613C321.32 600.733 315.013 590.413 309.253 579.893C278.253 605.067 256 640.28 243.88 678.133C240.093 673.573 235.48 669.8 230.733 666.293C235.28 647.373 245.013 630.307 255.16 613.893C267.467 594.093 283.267 576.627 301.12 561.693C295.24 548.507 291.333 534.32 290.773 519.853C271.413 524.587 253.653 534.28 237.253 545.373C207.253 565.493 181.653 592.453 164.053 624.067C159.347 632.307 155.733 641.107 151.84 649.76C148.88 649.373 145.933 648.853 142.987 648.387C145.627 633.893 152.613 620.68 159.747 607.973C181.947 570.88 213.64 539.4 251.213 517.96Z"></path>
<path fill="#454651" d="M527.627 493.427C533.027 497.653 538.587 501.667 544.413 505.28C543.253 524.533 544.907 544.04 551.187 562.36C563.96 550.947 576.387 539.12 589.44 528.027C592.987 529.347 596.533 530.667 600.12 531.88C600.48 555.027 605.013 577.933 611.293 600.147C626.627 583.213 640.333 564.88 653.867 546.493C659.707 547.573 665.587 548.667 671.533 549.12C681.16 567.96 689.92 587.307 700.973 605.387C711.253 588.453 720.64 570.947 728.76 552.88L728.827 552.733C734.413 552.653 739.987 552.333 745.573 552.147C758.307 567.547 771.467 582.627 785.093 597.24C789.88 578.973 793.253 560.213 793.04 541.267C796.8 539.667 800.64 538.213 804.453 536.707C816.24 540.227 827.533 545.173 839.2 549.093C839.507 538.72 838.187 528.413 836.507 518.213C842.48 514.2 847.813 509.347 853.733 505.267C858.227 528.2 855.253 552.907 844.387 573.707C836.693 588.547 823.733 600.72 808.013 606.627C790.24 613.453 770.707 614.573 751.893 612.867C738.133 611.92 724.48 609.76 710.68 609.267C680.307 607.747 650.613 615.44 620.667 618.973C601.493 620.853 580.973 620.533 563.733 610.88C544.44 600.667 531.36 581.053 526.667 560.013C521.653 538.24 521.267 514.96 527.627 493.427Z"></path>
<path fill="#454651" d="M1042.81 541.467C1048.52 526.107 1053.13 510.28 1055.89 494.12C1077.09 497.587 1097.2 505.907 1115.95 516.187C1152.23 536.547 1182.69 566.947 1203.81 602.733C1211.97 617.027 1218.68 632.347 1222.23 648.467C1218.87 648.44 1215.53 648.4 1212.21 648.387C1197.25 607.067 1168.23 571.507 1132.51 546.253C1115.75 534.773 1097.52 525.307 1078.15 519.08C1076.95 528 1075.08 536.853 1071.92 545.293C1070.37 549.84 1068.07 554.12 1066.85 558.773C1067.29 560.253 1068.6 561.253 1069.61 562.387C1100.19 590.747 1124.03 627.013 1135.41 667.293C1131.23 670.947 1126.95 674.533 1123.35 678.787C1119.07 670.053 1116.52 660.6 1112.15 651.907C1098.88 624.133 1081.01 598.067 1057.55 577.92C1051.99 589.373 1045.21 600.28 1036.79 609.853C1067.23 650.493 1085.83 700.32 1087.59 751.173C1087.33 751.453 1086.83 751.987 1086.57 752.267C1081.31 751.267 1076.24 749.453 1071.04 748.253L1070.99 747.893C1066.28 703.72 1049.16 660.907 1021.97 625.773C1009.25 638.52 994.28 648.787 978.213 656.827C988.04 688.08 989.507 721.147 990.48 753.653C984.907 755.387 979.453 757.48 973.96 759.4C973.24 726.987 970.053 694.307 959.973 663.347C954.2 664.72 948.36 665.84 942.467 666.52C942.347 656.427 941.973 646.36 941.707 636.28C967.107 630.36 991.027 617.253 1008.72 597.973C1024.11 581.933 1035.01 562.16 1042.81 541.467Z"></path>
<path fill="#454651" d="M962.933 914.667C963.307 908.4 965.44 900.893 971.84 898.333C977.8 896.947 983.573 900.307 987.893 904.12C994.373 910.227 998.093 918.6 1000.99 926.88C1006.63 943.6 1009.67 961.093 1011.29 978.64C1012.67 992.92 1013.61 1007.65 1009.68 1021.64C1007.24 1030.65 1001.25 1039.01 992.72 1043.11C987.92 1045.27 982.72 1042.63 979.307 1039.24C974.667 1034.79 971.467 1029.04 968.96 1023.17C966.187 1015.61 968.48 1007.69 968.28 999.973C966.12 991.293 959.827 983.533 961.173 974.12C961.88 964.213 956.067 955.493 953.827 946.147C958 943.267 964.013 944.227 968.68 941.96C970.133 932.147 961.813 924.373 962.933 914.667Z"></path>
<path fill="#454651" d="M454.933 1024.24C459.427 1019.24 467.493 1019.89 472.827 1023.15C478.747 1026.84 483.347 1032.23 488.173 1037.2C491.307 1034.27 494.4 1031.28 497.4 1028.23C504.413 1032.17 510.84 1037.04 516.933 1042.28C519.52 1040.35 522.267 1038.64 525.187 1037.27C529.68 1044.25 534.507 1051.07 538.507 1058.37C540.693 1062.4 543.573 1066.33 548.093 1067.91C561.84 1073.23 570.96 1086.52 574.52 1100.41C577.067 1108.29 575.56 1118.05 568.44 1123.07C558.507 1130.56 544.827 1127.96 534.453 1122.79C512.64 1112.2 494.32 1095.71 477.48 1078.52C467.667 1067.57 457.16 1056.15 453.133 1041.63C451.987 1035.95 451.147 1029.13 454.933 1024.24Z"></path>
<path fill="#F1657F" d="M945.28 413.387C954.4 411.813 964.733 411.253 972.773 416.627C983.933 424.147 989.293 438.8 986.533 451.853C984.253 463.893 976.453 474.067 967.24 481.8C955.4 491.6 941.307 498.867 926.2 501.973C920.453 476.44 912.853 451.36 903.813 426.8C904.56 426.4 906.08 425.6 906.84 425.2C919.307 420.32 932.227 416.427 945.28 413.387Z"></path>
<path fill="#F1657F" d="M401.44 420.213C411.907 416.387 423.2 418.92 433.88 420.373C444.907 422.547 456.187 424.44 466.733 428.36C467.267 428.613 468.347 429.147 468.88 429.413C459.587 456.107 452.92 483.587 446.907 511.16C428.213 505.68 409.84 496.707 396.853 481.827C388.827 472.467 383.653 460.36 383.84 447.933C384.293 436.56 390.32 424.44 401.44 420.213Z"></path>
<path fill="#F1657F" d="M667.68 460.96C672.147 460.787 676.627 460.933 681.067 461.587C690.56 462.893 700.2 463.28 709.56 465.52C710.68 475.68 709 485.867 707.2 495.853C705.84 502.227 704.253 509.44 698.747 513.587C693.173 517.08 685.427 515.813 680.827 511.253C673.387 504.133 669.813 493.947 668.093 484C666.987 476.413 665.413 468.507 667.68 460.96Z"></path>
<path fill="#F1657F" d="M615.627 698.947C609.347 695.693 611.8 684.933 618.64 684.107C625.067 683.773 631.947 684.627 637.72 687.64C642.373 690.693 639.907 696.853 638.427 701.04C630.827 701.627 622.8 701.84 615.627 698.947Z"></path>
<path fill="#F1657F" d="M660.467 692.667C668.92 691.693 675.613 701.867 672.187 709.387C670.907 712.667 666.853 712.187 664.027 711.907C658.173 711.267 652.187 706.373 652.893 700.013C652.973 695.92 656.587 692.96 660.467 692.667Z"></path>
<path fill="#F1657F" d="M777.347 694.96C786.533 696.64 795.773 697.96 805.013 699.347C805 702.64 804.96 705.933 804.96 709.227C804.44 729.16 813.613 748.2 826.36 763.08C833.307 770.68 841.92 777.24 851.907 780.2C863.8 783.84 877.627 778.613 884.2 768.04C894.987 752.173 892.813 731.987 893.747 713.787C909.667 716.573 925.693 718.76 941.667 721.173C940.787 733.613 940.093 746.12 937.347 758.32C936.68 762.12 936.147 765.96 935.307 769.733C930.48 774.493 928.8 781.2 925.8 787.053C919.96 798.733 912.48 810.013 901.76 817.747C891.493 824.813 879.133 828.867 866.64 828.92C848.36 829.493 830.373 823.013 815.56 812.533C795.067 798.573 779.733 777 773.933 752.84C769.027 733.853 770.187 713.227 777.347 694.96Z"></path>
<path fill="#F1657F" d="M631.187 763.2C634.973 762.16 636.013 767.547 636.613 770.253C636.96 773.733 638.387 779.147 634.107 780.733C629.707 782.52 624.627 778.053 625.72 773.493C626.347 769.653 627.76 765.4 631.187 763.2Z"></path>
<path fill="#F1657F" d="M604.32 764.347C610.187 761.52 614.507 768.64 616.16 773.32C617.533 777.413 612.587 779.467 609.307 779.627C605.667 779.707 600.96 780.84 598.173 777.867C596.733 772.8 600.213 767.187 604.32 764.347Z"></path>
<path fill="#F1657F" d="M757.853 861.88C765.053 859.147 771.2 868.48 767.88 874.64C766.88 877.227 763.84 877.853 761.52 878.76C756.853 880.067 751.96 881.507 747.08 880.8C741.973 878.32 740.24 869.987 745.093 866.44C748.907 863.933 753.44 862.827 757.853 861.88Z"></path>
<path fill="#F1657F" d="M717.667 871.093C723.6 868.893 731.893 872.907 731.107 879.973C732.08 887.693 721.893 890.36 716.173 888C709.027 884.84 709.787 872.853 717.667 871.093Z"></path>
<path fill="#F1657F" d="M744.56 928.827C765.467 923.947 785.547 916.147 804.987 907.16C816.52 917.947 827.413 929.44 839.653 939.453C856.387 952.24 875.707 961.52 896.08 966.84C917.267 972.44 939.293 974.4 961.173 974.12C959.827 983.533 966.12 991.293 968.28 999.973C968.48 1007.69 966.187 1015.61 968.96 1023.17C909.16 1022.97 849.053 1005.43 800 970.88C796.827 969.2 794.067 964.413 790.04 966.293C771.973 972.92 753.52 978.773 734.507 981.987C695.853 988.987 655.813 987.773 617.48 979.28C617.707 1000.92 615.893 1022.93 608.693 1043.48C601.52 1064.6 589.64 1084.05 574.52 1100.41C570.96 1086.52 561.84 1073.23 548.093 1067.91C543.573 1066.33 540.693 1062.4 538.507 1058.37C555.933 1048.17 566.08 1028.83 569.187 1009.35C572.027 993.88 570.493 978.12 569.013 962.6C558.267 957.4 547.8 951.653 537.547 945.52C537.84 944.973 538.4 943.867 538.68 943.32C544.693 931.56 550.613 919.733 557.627 908.533C563.773 910.987 569.88 913.573 576.093 915.907C629.293 936.52 688.893 942.8 744.56 928.827Z"></path>
<path fill="#BC77A4" d="M237.253 545.373C253.653 534.28 271.413 524.587 290.773 519.853C291.333 534.32 295.24 548.507 301.12 561.693C283.267 576.627 267.467 594.093 255.16 613.893C245.013 630.307 235.28 647.373 230.733 666.293C206.853 652.84 178.84 649.387 151.84 649.76C155.733 641.107 159.347 632.307 164.053 624.067C181.653 592.453 207.253 565.493 237.253 545.373Z"></path>
<path fill="#BC77A4" d="M1071.92 545.293C1075.08 536.853 1076.95 528 1078.15 519.08C1097.52 525.307 1115.75 534.773 1132.51 546.253C1168.23 571.507 1197.25 607.067 1212.21 648.387C1190.04 647.88 1166.97 649.8 1147.07 660.427C1143.05 662.48 1139.2 664.84 1135.41 667.293C1124.03 627.013 1100.19 590.747 1069.61 562.387C1068.6 561.253 1067.29 560.253 1066.85 558.773C1068.07 554.12 1070.37 549.84 1071.92 545.293Z"></path>
<path fill="#BC77A4" d="M1057.55 577.92C1081.01 598.067 1098.88 624.133 1112.15 651.907C1116.52 660.6 1119.07 670.053 1123.35 678.787C1119.17 684.6 1114.47 690.067 1110.95 696.333C1100.79 713.92 1094.23 733.32 1089.28 752.947C1088.41 752.973 1086.69 753.013 1085.84 753.04L1086.57 752.267C1086.83 751.987 1087.33 751.453 1087.59 751.173C1085.83 700.32 1067.23 650.493 1036.79 609.853C1045.21 600.28 1051.99 589.373 1057.55 577.92Z"></path>
<path fill="#BC77A4" d="M243.88 678.133C256 640.28 278.253 605.067 309.253 579.893C315.013 590.413 321.32 600.733 329.467 609.613C299.267 648.253 281.16 695.893 277.08 744.707C270.84 720.507 260.507 697.04 243.88 678.133Z"></path>
<path fill="#BC77A4" d="M312.493 677.56C320.827 658.72 330.907 640.533 343.587 624.253C356.173 637.867 371.933 647.973 388.493 656.067C381.493 680.507 377.813 706.107 378.96 731.533C371.52 734.693 364.48 738.667 357.307 742.387C335.48 741.427 313.813 745.107 292.747 750.533C295.36 725.333 302.387 700.747 312.493 677.56Z"></path>
<path fill="#BC77A4" d="M978.213 656.827C994.28 648.787 1009.25 638.52 1021.97 625.773C1049.16 660.907 1066.28 703.72 1070.99 747.893C1061.25 745.627 1051.29 744.053 1041.28 744.347C1023.89 744.067 1007.01 748.853 990.48 753.653C989.507 721.147 988.04 688.08 978.213 656.827Z"></path>
<path fill="#BC77A4" d="M406.627 663.2C414.16 665.587 421.867 667.427 429.693 668.6C429.547 685.227 429.867 701.867 430.4 718.493C418.853 720.133 407.293 721.88 396.12 725.307C396.653 704.227 400.4 683.32 406.627 663.2Z"></path>
<path fill="#BC77A4" d="M942.467 666.52C948.36 665.84 954.2 664.72 959.973 663.347C970.053 694.307 973.24 726.987 973.96 759.4C961.747 759.16 949.507 759.56 937.347 758.32C940.093 746.12 940.787 733.613 941.667 721.173C942.813 702.973 942.693 684.733 942.467 666.52Z"></path>
<path fill="#E7E5E6" d="M613.787 1191.36C684.267 1190.28 754.813 1190.67 825.24 1194.28C882.413 1197.6 939.88 1201.39 996.04 1213.29C1006.25 1215.89 1016.99 1217.72 1026.19 1223.15C1028.83 1224.64 1032.13 1227.97 1029.77 1231.11C1025.11 1236.11 1018 1237.55 1011.77 1239.75C986.213 1247.23 959.64 1250.32 933.28 1253.55C856.68 1261.76 779.613 1264.8 702.613 1265.2C613.2 1265.75 523.667 1262.95 434.72 1253.4C408.32 1250.13 381.68 1247.17 356.04 1239.77C349.333 1237.27 341.573 1235.64 336.573 1230.2C334.333 1224.16 342.32 1221.88 346.36 1219.68C367.867 1211.83 390.747 1208.52 413.307 1205.13C479.773 1196.41 546.8 1192.97 613.787 1191.36Z"></path>
</g>
<defs>
<clipPath id="clip0_1_1640">
<rect fill="white" height="1365.33" width="1365.33"></rect>
</clipPath>
</defs>
</svg>
